# xmcd
#
# Track frame offsets:
#	150
#	39273
#	64977
#	90924
#	114279
#	138417
#	158397
#
# Disc length: 2396 seconds
#
# Revision: 1
# Processed by: cddbd v1.4PL0 Copyright (c) Steve Scherf et al.
# Submitted via: audiograbber 1.82.01
#
DISCID=48095a07
DTITLE=Tony Kiwan - Baddi Ousalla
DYEAR=1900
DGENRE=
TTITLE0=Machou Na3mol Gazdoura
TTITLE1=B3id El Hob
TTITLE2=Maktoub
TTITLE3=Ba3do Albi
TTITLE4=Baddi Ousalla
TTITLE5=El Amira
TTITLE6=Mahla Talletha
EXTD=
EXTT0=
EXTT1=
EXTT2=
EXTT3=
EXTT4=
EXTT5=
EXTT6=
PLAYORDER=
